<svg width="30" height="30" viewBox="0 0 30 30" fill="none" xmlns="http://www.w3.org/2000/svg">
<g clip-path="url(#clip0)">
<path d="M24.1301 29.3478C25.931 29.3478 27.3909 27.8879 27.3909 26.087C27.3909 24.2861 25.931 22.8262 24.1301 22.8262C22.3292 22.8262 20.8693 24.2861 20.8693 26.087C20.8693 27.8879 22.3292 29.3478 24.1301 29.3478Z" fill="#455A64"/>
<path d="M11.0867 29.3478C12.8876 29.3478 14.3475 27.8879 14.3475 26.087C14.3475 24.2861 12.8876 22.8262 11.0867 22.8262C9.28584 22.8262 7.82593 24.2861 7.82593 26.087C7.82593 27.8879 9.28584 29.3478 11.0867 29.3478Z" fill="#455A64"/>
<path d="M29.8365 4.78584C29.7126 4.64559 29.5345 4.56531 29.3474 4.56543H5.86947C5.50929 4.56537 5.21722 4.85725 5.21716 5.21743C5.21716 5.26127 5.22156 5.30505 5.23037 5.34803L7.83905 18.3913C7.90104 18.695 8.16823 18.9131 8.47815 18.913C8.50682 18.9149 8.53556 18.9149 8.56423 18.913L28.1292 16.3043C28.4231 16.2651 28.6535 16.0325 28.69 15.7382L29.9943 5.30358C30.0193 5.11631 29.9617 4.92744 29.8365 4.78584Z" fill="#FFC107"/>
<path d="M11.0867 16.3043C10.7679 16.3042 10.496 16.0736 10.4437 15.7591L9.13941 7.93314C9.09104 7.57621 9.34117 7.2477 9.69811 7.19934C10.0399 7.15299 10.3587 7.38086 10.4255 7.71928L11.7298 15.5453C11.7887 15.9004 11.5488 16.236 11.1937 16.2953C11.1584 16.3013 11.1226 16.3044 11.0867 16.3043Z" fill="#FAFAFA"/>
<path d="M14.3476 15.6523C14.0091 15.6536 13.7258 15.3959 13.6954 15.0588L13.0432 7.88496C13.0094 7.52637 13.2728 7.20832 13.6314 7.17457C13.6332 7.17439 13.6349 7.17427 13.6367 7.17408C13.9954 7.14162 14.3125 7.40617 14.3449 7.76488V7.76494L14.9971 14.9387C15.0295 15.2975 14.765 15.6145 14.4063 15.647H14.4063L14.3476 15.6523Z" fill="#FAFAFA"/>
<path d="M17.6084 15.0003C17.2482 15.0003 16.9562 14.7083 16.9562 14.3481V7.8265C16.9562 7.46632 17.2482 7.17432 17.6084 7.17432C17.9685 7.17432 18.2605 7.46632 18.2605 7.8265V14.3482C18.2605 14.7083 17.9685 15.0003 17.6084 15.0003Z" fill="#FAFAFA"/>
<path d="M20.8692 14.3477H20.7962C20.438 14.3098 20.1784 13.9886 20.2163 13.6304C20.2166 13.6282 20.2168 13.626 20.2171 13.6238L20.8692 7.75428C20.9116 7.39557 21.2338 7.13719 21.5931 7.17388C21.9511 7.2135 22.2093 7.53577 22.1697 7.89381V7.89387L21.5175 13.7633C21.4828 14.0953 21.2031 14.3474 20.8692 14.3477Z" fill="#FAFAFA"/>
<path d="M24.13 13.6956C23.7699 13.6955 23.478 13.4034 23.478 13.0432C23.478 12.9901 23.4846 12.9371 23.4974 12.8856L24.8017 7.66832C24.8808 7.31695 25.2298 7.09617 25.5812 7.17522C25.9325 7.25428 26.1533 7.60327 26.0743 7.95464C26.0721 7.96448 26.0696 7.97427 26.0669 7.98399L24.7626 13.2013C24.6902 13.4917 24.4293 13.6955 24.13 13.6956Z" fill="#FAFAFA"/>
<path d="M26.7387 21.5216H11.6855C9.51143 21.5166 7.64071 19.9833 7.209 17.8525L4.03037 1.95671H0.652184C0.292006 1.95671 0 1.66471 0 1.30453C0 0.94435 0.292006 0.652344 0.652184 0.652344H4.56517C4.87515 0.652283 5.14227 0.87037 5.20427 1.17405L8.48855 17.5956C8.79639 19.1177 10.1325 20.2134 11.6855 20.2173H26.7387C27.0989 20.2173 27.3909 20.5093 27.3909 20.8695C27.3909 21.2296 27.0989 21.5216 26.7387 21.5216Z" fill="#455A64"/>
</g>
<defs>
<clipPath id="clip0">
<rect width="30" height="30" fill="white"/>
</clipPath>
</defs>
</svg>
