<svg width="30" height="30" viewBox="0 0 30 30" fill="none" xmlns="http://www.w3.org/2000/svg">
<path d="M12.0351 0H10.0367C8.65781 0.00162371 7.54032 1.11911 7.5387 2.49802V7.36967C7.54032 8.51413 7.80673 9.64268 8.31708 10.6671C8.78702 11.6087 9.01734 12.6517 8.98755 13.7037L8.58787 27.4663C8.54059 28.8174 9.59756 29.9512 10.9488 29.9984C12.3 30.0457 13.4337 28.9887 13.481 27.6375C13.483 27.5804 13.483 27.5233 13.481 27.4662L13.0813 13.7051C13.0516 12.6536 13.282 11.6111 13.7518 10.67C14.2636 9.64511 14.531 8.51563 14.5332 7.3701V2.49802C14.5315 1.11911 13.4141 0.00168617 12.0351 0ZM13.5339 7.37016C13.5327 8.35963 13.3024 9.33536 12.861 10.2209C12.3173 11.3096 12.0509 12.5157 12.0851 13.7321L12.4848 27.4912C12.4963 27.8822 12.3479 28.2611 12.0741 28.5404C11.4977 29.1045 10.5762 29.1045 9.99975 28.5404C9.72552 28.262 9.57652 27.8839 9.58707 27.4932L9.98676 13.7326C10.0212 12.5161 9.75488 11.3099 9.21137 10.2209C8.76978 9.33523 8.53928 8.35932 8.5379 7.36967V2.49802C8.54053 1.86515 8.9404 1.30209 9.53711 1.09114V6.99446H10.5363V0.999209H11.5355V6.99446H12.5347V1.09114C13.1315 1.30209 13.5313 1.86515 13.5339 2.49802V7.37016Z" fill="black"/>
<path d="M22.0272 14.9782V0.499626C22.0272 0.223719 21.8035 2.10895e-05 21.5276 2.10895e-05C19.8128 -0.00541211 18.2696 1.03939 17.6377 2.63344C16.2589 6.08114 16.1878 9.91392 17.4379 13.4104L18.0294 15.0661L17.6017 27.4623C17.5546 28.8038 18.6039 29.9296 19.9454 29.9767C21.287 30.0239 22.4127 28.9745 22.4599 27.633C22.4619 27.5761 22.4619 27.5192 22.4599 27.4623L22.0272 14.9782ZM18.5655 3.00464C18.9799 1.95903 19.9167 1.21081 21.028 1.0377V14.4886H18.8797L18.3746 13.0747C17.2076 9.80713 17.2754 6.22565 18.5655 3.00464ZM21.058 28.5404C20.4874 29.1035 19.5702 29.1035 18.9996 28.5404C18.7293 28.2616 18.5849 27.8843 18.5999 27.4963L19.0126 15.4878H21.045L21.4592 27.4963C21.4738 27.8845 21.3288 28.2618 21.058 28.5404Z" fill="black"/>
</svg>
