<svg width="30" height="30" viewBox="0 0 30 30" fill="none" xmlns="http://www.w3.org/2000/svg">
<g clip-path="url(#clip0)">
<path d="M15.1633 25.5227C15.1633 25.5227 8.46399 21.5358 4.96726 16.4704C2.94112 13.5292 2.647 10.9802 3.23524 8.98674C4.08491 6.11093 7.3202 3.26779 11.83 4.93446C14.0195 5.75145 15.1633 6.66648 15.1633 6.66648C15.1633 6.66648 16.3071 5.75145 18.4967 4.93446C23.0065 3.26779 26.2418 6.11093 27.0914 8.98674C27.6797 10.9475 27.3855 13.4965 25.3594 16.4704C21.8627 21.5358 15.1633 25.5227 15.1633 25.5227Z" fill="#F55557"/>
<path d="M29.5425 14.5424H26.9935C28.0719 12.1241 27.9412 10.196 27.549 8.88881C26.8627 6.53587 24.5752 4.01953 21.1438 4.01953C20.2288 4.01953 19.3137 4.18293 18.366 4.54241C16.732 5.16332 15.6536 5.81692 15.1961 6.14371C14.7059 5.81692 13.6601 5.16332 12.0261 4.54241C11.0784 4.18293 10.1634 4.01953 9.24837 4.01953C5.81699 4.01953 3.52941 6.53587 2.84314 8.88881C2.38562 10.2614 2.2549 12.3855 3.56209 15.0326H0.457516C0.196078 15.0326 0 15.2287 0 15.4901C0 15.7516 0.196078 15.9476 0.457516 15.9476H4.08497C4.24837 16.2091 4.41176 16.4705 4.57516 16.732C7.54902 21.013 13.9869 25.6535 15.1634 25.9476V25.9803C15.1634 25.9803 15.1961 25.9803 15.2288 25.9476C15.2614 25.9476 15.2941 25.9476 15.2941 25.9476V25.915C16.3072 25.4248 22.4837 21.4378 25.7516 16.6993C26.0458 16.2744 26.3072 15.8169 26.5359 15.4248H29.5425C29.8039 15.4248 30 15.2287 30 14.9672C30 14.7385 29.8039 14.5424 29.5425 14.5424ZM3.69281 9.15025C4.28105 7.12411 6.27451 4.93456 9.21569 4.93456C10 4.93456 10.817 5.09796 11.6667 5.39208C13.7582 6.17639 14.8693 7.05875 14.8693 7.05875C15.0327 7.18947 15.2941 7.18947 15.4575 7.05875C15.4575 7.05875 16.5686 6.17639 18.6601 5.39208C19.5098 5.09796 20.3268 4.93456 21.1111 4.93456C24.0523 4.93456 26.0457 7.12411 26.634 9.15025C27.1242 10.8169 26.8627 12.647 25.9477 14.5424H23.1699L21.9935 12.5489C21.9281 12.4182 21.7647 12.3202 21.6013 12.3202C21.4379 12.3202 21.2745 12.3855 21.2092 12.5163L20.2288 13.9542L18.6601 8.85613C18.5948 8.66005 18.3987 8.52934 18.2026 8.52934C18.0065 8.52934 17.8105 8.66005 17.7451 8.85613L15.098 18.0391L12.2222 10.6862C12.1569 10.5228 11.9935 10.3921 11.7974 10.3921C11.6013 10.3921 11.4379 10.4901 11.3725 10.6535L9.11765 15.0326H4.64052C3.49673 12.9411 3.13725 10.9476 3.69281 9.15025ZM24.9673 16.2091C21.9281 20.6208 16.3725 24.2156 15.1634 24.9672C13.9542 24.2156 8.39869 20.5882 5.35948 16.2091C5.29412 16.111 5.26144 16.0457 5.19608 15.9476H9.41176C9.57516 15.9476 9.73856 15.8496 9.8366 15.6862L11.732 11.9607L14.7386 19.6404C14.8039 19.8365 14.9673 19.9346 15.1634 19.9346C15.1634 19.9346 15.1634 19.9346 15.1961 19.9346C15.3922 19.9346 15.5556 19.8038 15.6209 19.6078L18.2353 10.6208L19.6405 15.1633C19.7059 15.3267 19.8366 15.4574 20.0327 15.4901C20.1961 15.5228 20.3922 15.4248 20.4902 15.294L21.6013 13.6927L22.549 15.294C22.6471 15.4248 22.7778 15.5228 22.9412 15.5228H25.4575C25.2941 15.7189 25.1307 15.9803 24.9673 16.2091Z" fill="#30323A"/>
</g>
<defs>
<clipPath id="clip0">
<rect width="30" height="30" fill="white"/>
</clipPath>
</defs>
</svg>
