<svg width="30" height="30" viewBox="0 0 30 30" fill="none" xmlns="http://www.w3.org/2000/svg">
<g clip-path="url(#clip0)">
<path d="M20.5365 8.5944L20.2115 8.5129C18.6431 8.12122 16.9981 8.75997 16.105 10.1074C15.9592 10.3419 16.031 10.6502 16.2655 10.796C16.4904 10.9359 16.7853 10.8762 16.938 10.6599C17.5976 9.66653 18.8108 9.19528 19.968 9.4829L20.2935 9.5644C20.5618 9.62959 20.8322 9.4649 20.8975 9.19659C20.962 8.93097 20.8012 8.66272 20.5365 8.5944Z" fill="black"/>
<path d="M25.7637 14.3582C25.6373 14.3161 25.4994 14.3263 25.3804 14.3864H25.3819C23.0722 15.5409 20.3537 15.5409 18.0439 14.3864C17.7975 14.2618 17.4967 14.3606 17.3721 14.6071C17.312 14.7259 17.3019 14.8639 17.3439 14.9904L17.8214 16.4284C18.5272 18.5773 20.8415 19.7472 22.9904 19.0414C24.2272 18.6351 25.1972 17.6651 25.6034 16.4284L26.0804 14.9904C26.1675 14.7284 26.0257 14.4454 25.7637 14.3582ZM24.6549 16.1139C24.1224 17.7387 22.3735 18.6242 20.7486 18.0916C19.8122 17.7847 19.0778 17.0503 18.7709 16.1139L18.6424 15.7264C20.6294 16.4264 22.7959 16.4264 24.7829 15.7264L24.6549 16.1139Z" fill="black"/>
<path d="M27.9856 10.3131C27.9805 10.3049 27.9751 10.2967 27.9694 10.2887C27.0757 8.94274 25.4316 8.30481 23.864 8.69574L23.538 8.77774C23.2748 8.86162 23.1296 9.14293 23.2135 9.40599C23.29 9.64605 23.5332 9.79162 23.781 9.74574L24.1075 9.66424C25.2644 9.37693 26.4771 9.84812 27.1364 10.8412C27.2823 11.0757 27.5906 11.1476 27.8251 11.0017C28.0596 10.8559 28.1314 10.5476 27.9856 10.3131Z" fill="black"/>
<path d="M29.6584 4.04139C24.5003 2.3254 18.9251 2.3254 13.767 4.04139C13.5633 4.1097 13.426 4.30052 13.426 4.51539V8.23938C9.18704 9.17213 4.77449 8.93732 0.658499 7.55988C0.396624 7.47232 0.113312 7.6137 0.0258124 7.87557C0.00874998 7.92663 1.69732e-09 7.98007 1.69732e-09 8.03388V15.3744C-6.24982e-05 19.4276 1.72593 23.289 4.74599 25.9923C6.54211 27.5989 9.23729 27.669 11.1145 26.1578L11.2675 26.0348C13.3323 24.3808 14.8893 22.1785 15.76 19.6804C16.4368 20.7197 17.2478 21.6652 18.172 22.4924C19.968 24.0989 22.663 24.1689 24.5399 22.6579L24.6929 22.5349C28.059 19.8384 30.0126 15.7548 29.9999 11.4419V4.51539C29.9999 4.30039 29.8623 4.10952 29.6584 4.04139ZM10.6405 25.2563L10.4905 25.3793C8.99336 26.5845 6.84367 26.528 5.41199 25.2458C2.60424 22.7327 0.999685 19.1426 0.999998 15.3744V8.71838C5.02955 9.9455 9.30379 10.1347 13.426 9.26838V11.8764C13.426 12.1687 13.4352 12.4611 13.4535 12.7534C13.4595 12.8504 13.4725 12.9464 13.4805 13.0434C13.4965 13.2374 13.5115 13.4319 13.5355 13.6254C13.5505 13.7429 13.572 13.8589 13.5895 13.9754C13.6155 14.1474 13.6395 14.3199 13.6715 14.4909C13.6945 14.6149 13.725 14.7379 13.7515 14.8614C13.7865 15.0234 13.819 15.1859 13.8595 15.3464C13.892 15.4744 13.931 15.6009 13.9665 15.7279C14.01 15.8819 14.0515 16.0364 14.1 16.1889C14.141 16.3179 14.188 16.4449 14.2325 16.5724C14.2825 16.7224 14.335 16.8699 14.392 17.0169C14.442 17.1449 14.4965 17.2704 14.5495 17.3964C14.61 17.5404 14.669 17.6844 14.734 17.8259C14.792 17.9524 14.8555 18.0759 14.9175 18.2014C14.971 18.3094 15.0175 18.4194 15.076 18.5264C14.3405 21.1797 12.7887 23.5342 10.6405 25.2563ZM28.9999 11.4419C29.0114 15.4518 27.1954 19.2485 24.0665 21.7564L23.9135 21.8794C22.417 23.083 20.2691 23.0265 18.838 21.7459C17.7137 20.7402 16.7707 19.5489 16.05 18.2239C15.2548 16.7656 14.7392 15.1716 14.53 13.5239C14.4608 12.9766 14.4261 12.4255 14.426 11.8739V4.87839C19.1683 3.37939 24.2576 3.37939 28.9999 4.87839V11.4419Z" fill="black"/>
<path d="M6.02099 12.8285C5.79068 12.6758 5.48018 12.7387 5.32749 12.969L5.11049 13.2975C4.53131 14.1742 3.55075 14.7016 2.5 14.7015C2.22387 14.7015 2 14.9254 2 15.2015C2 15.4776 2.22387 15.7015 2.5 15.7015C3.886 15.7019 5.17962 15.0067 5.94399 13.8505L6.16149 13.522C6.31418 13.2917 6.2513 12.9812 6.02099 12.8285Z" fill="black"/>
<path d="M11.227 20.2003H11.2245C9.32771 18.9228 6.84584 18.9228 4.94903 20.2003C4.14684 20.7394 3.93353 21.8267 4.47259 22.6289C4.79646 23.1109 5.33834 23.4008 5.91903 23.4028C6.1894 23.4027 6.45602 23.3393 6.69752 23.2178C7.57258 22.7813 8.60196 22.7813 9.47702 23.2178C10.3381 23.6531 11.389 23.3081 11.8243 22.447C12.2247 21.6551 11.9678 20.6888 11.227 20.2003ZM10.8745 22.0708C10.6671 22.3829 10.2598 22.4916 9.92452 22.3243C8.76671 21.7461 7.40433 21.7461 6.24652 22.3243C5.91134 22.4923 5.50346 22.3835 5.29653 22.0708C5.06684 21.7267 5.15928 21.2616 5.50303 21.0313C7.06334 19.9807 9.10471 19.9807 10.665 21.0313C11.0098 21.2606 11.1036 21.7259 10.8745 22.0708Z" fill="black"/>
<path d="M13.6814 17.3193L12.7049 15.0413L12.6999 15.0328C12.6302 14.835 12.4436 14.7025 12.2339 14.7018C11.1833 14.702 10.2028 14.1745 9.62395 13.2978L9.40595 12.9693C9.25326 12.7391 8.94289 12.6764 8.7127 12.829C8.48251 12.9817 8.41976 13.2921 8.57245 13.5223L8.79045 13.8508C9.41913 14.7981 10.4112 15.4437 11.5319 15.6348L10.8094 17.3193C10.4693 18.1123 10.8365 19.031 11.6296 19.3711C12.4226 19.7113 13.3413 19.3441 13.6814 18.551C13.8501 18.1578 13.8501 17.7125 13.6814 17.3193ZM12.7149 18.2458C12.5295 18.505 12.1691 18.5647 11.9099 18.3793C11.8584 18.3424 11.8133 18.2973 11.7764 18.2458C11.6701 18.089 11.6512 17.8886 11.7264 17.7148L12.2434 16.5083L12.7604 17.7148C12.8373 17.8879 12.8201 18.0883 12.7149 18.2458Z" fill="black"/>
</g>
<defs>
<clipPath id="clip0">
<rect width="30" height="30" fill="white"/>
</clipPath>
</defs>
</svg>
